<?xml version="1.0" encoding="utf-8" ?>
<svg baseProfile="full" height="1024px" version="1.1" width="1024px" xmlns="http://www.w3.org/2000/svg" xmlns:ev="http://www.w3.org/2001/xml-events" xmlns:xlink="http://www.w3.org/1999/xlink"><defs /><polygon fill="blue" points="870,762 870,765 871,766 871,767 872,768 872,770 873,771 873,772 874,773 874,774 875,775 875,777 876,778 876,779 877,780 877,782 878,783 878,784 879,785 879,787 880,788 880,789 881,790 881,791 882,792 882,794 883,795 883,796 884,797 884,799 885,800 885,801 886,802 886,804 887,805 887,806 888,807 888,808 889,809 889,811 890,812 890,813 891,814 891,816 892,817 892,818 893,819 893,820 894,821 894,823 895,824 895,826 894,827 894,828 893,829 893,830 892,831 892,832 891,833 891,834 887,838 886,838 885,839 882,839 881,840 880,840 879,839 876,839 876,845 875,846 875,853 879,853 880,854 884,854 885,853 889,853 890,852 891,852 892,851 893,851 894,850 895,850 903,842 903,841 905,839 905,838 907,836 907,835 908,834 908,833 909,832 909,830 910,829 910,828 911,827 911,826 912,825 912,823 913,822 913,821 914,820 914,818 915,817 915,816 916,815 916,814 917,813 917,811 918,810 918,809 919,808 919,806 920,805 920,804 921,803 921,801 922,800 922,799 923,798 923,796 924,795 924,794 925,793 925,792 926,791 926,789 927,788 927,787 928,786 928,784 929,783 929,782 930,781 930,779 931,778 931,777 932,776 932,774 933,773 933,772 934,771 934,769 935,768 935,767 936,766 936,765 937,764 937,762 921,762 919,764 919,766 918,767 918,769 917,770 917,772 916,773 916,774 915,775 915,777 914,778 914,780 913,781 913,783 912,784 912,786 911,787 911,788 910,789 910,791 909,792 909,794 908,795 908,797 907,798 907,799 906,800 906,802 905,803 905,805 904,806 902,804 902,802 901,801 901,799 900,798 900,796 899,795 899,794 898,793 898,791 897,790 897,788 896,787 896,786 895,785 895,783 894,782 894,780 893,779 893,777 892,776 892,775 891,774 891,772 890,771 890,769 889,768 889,767 888,766 888,764 887,763 887,762" /><polygon fill="blue" points="160,762 159,763 160,764 160,824 159,825 159,826 176,826 176,763 175,762" /><polygon fill="blue" points="822,761 821,762 817,762 816,763 815,763 814,764 813,764 812,765 811,765 810,766 809,766 802,773 802,774 801,775 801,776 800,777 800,778 799,779 799,781 798,782 798,784 797,785 797,802 798,803 798,806 799,807 799,808 800,809 800,811 802,813 802,814 809,821 810,821 811,822 812,822 813,823 814,823 815,824 818,824 819,825 831,825 832,824 834,824 835,823 837,823 839,821 840,821 843,818 843,817 844,816 845,817 845,824 844,825 844,828 843,829 843,831 841,833 841,834 838,837 837,837 835,839 833,839 832,840 820,840 819,839 816,839 815,838 813,838 812,837 811,837 810,836 808,836 806,834 805,835 805,837 804,838 804,839 803,840 803,842 802,843 802,845 801,846 801,848 802,848 803,849 804,849 805,850 807,850 808,851 810,851 811,852 813,852 814,853 818,853 819,854 834,854 835,853 838,853 839,852 841,852 842,851 843,851 844,850 845,850 846,849 847,849 849,847 850,847 853,844 853,843 856,840 856,839 857,838 857,837 858,836 858,834 859,833 859,831 860,830 860,826 861,825 861,762 846,762 845,763 845,768 844,769 843,768 843,767 842,767 840,765 839,765 838,764 837,764 836,763 835,763 834,762 830,762 829,761" /><polygon fill="blue" points="753,761 752,762 747,762 746,763 744,763 743,764 742,764 741,765 740,765 739,766 738,766 736,768 735,768 732,771 732,772 729,775 729,776 728,777 728,778 727,779 727,780 726,781 726,783 725,784 725,787 724,788 724,801 725,802 725,805 726,806 726,807 727,808 727,810 729,812 729,813 731,815 731,816 734,819 735,819 738,822 739,822 740,823 741,823 742,824 743,824 744,825 747,825 748,826 752,826 753,827 760,827 761,826 765,826 766,825 768,825 769,824 771,824 772,823 773,823 775,821 776,821 784,813 784,812 785,811 785,810 786,809 786,808 787,807 787,806 788,805 788,802 789,801 789,787 788,786 788,784 787,783 787,781 786,780 786,779 785,778 785,777 784,776 784,775 775,766 774,766 773,765 772,765 771,764 770,764 769,763 767,763 766,762 761,762 760,761" /><polygon fill="blue" points="652,761 651,762 646,762 645,763 643,763 642,764 641,764 640,765 639,765 638,766 637,766 635,768 634,768 629,773 629,774 627,776 627,777 626,778 626,779 625,780 625,781 624,782 624,785 623,786 623,791 622,792 622,795 623,796 623,803 624,804 624,806 625,807 625,808 626,809 626,810 627,811 627,812 628,813 628,814 634,820 635,820 637,822 638,822 639,823 640,823 641,824 642,824 643,825 645,825 646,826 651,826 652,827 658,827 659,826 664,826 665,825 667,825 668,824 669,824 670,823 671,823 672,822 673,822 675,820 676,820 681,815 681,814 683,812 683,811 684,810 684,809 685,808 685,807 686,806 686,804 687,803 687,798 688,797 688,791 687,790 687,785 686,784 686,782 685,781 685,780 684,779 684,778 683,777 683,776 682,775 682,774 676,768 675,768 673,766 672,766 671,765 670,765 669,764 668,764 667,763 665,763 664,762 659,762 658,761" /><polygon fill="blue" points="589,761 588,762 585,762 584,763 582,763 581,764 580,764 579,765 578,765 573,770 572,769 572,762 556,762 556,826 572,826 572,784 573,783 573,781 577,777 578,777 579,776 580,776 581,775 590,775 591,776 592,776 595,779 595,780 596,781 596,782 597,783 597,826 613,826 613,779 612,778 612,775 611,774 611,773 610,772 610,771 609,770 609,769 604,764 603,764 602,763 600,763 599,762 596,762 595,761" /><polygon fill="blue" points="452,761 451,762 446,762 445,763 443,763 442,764 441,764 440,765 438,765 436,767 435,767 428,774 428,775 427,776 427,777 426,778 426,779 425,780 425,781 424,782 424,785 423,786 423,802 424,803 424,806 425,807 425,808 426,809 426,811 428,813 428,814 431,817 431,818 432,818 436,822 437,822 438,823 439,823 440,824 442,824 443,825 445,825 446,826 450,826 451,827 460,827 461,826 465,826 466,825 469,825 470,824 471,824 472,823 473,823 474,822 475,822 477,820 476,819 476,818 475,817 475,816 474,815 474,813 473,812 473,811 472,810 472,809 470,811 469,811 468,812 467,812 466,813 463,813 462,814 454,814 453,813 451,813 450,812 449,812 448,811 447,811 444,808 444,807 442,805 442,803 441,802 441,799 440,798 440,790 441,789 441,786 442,785 442,784 443,783 443,782 448,777 449,777 450,776 451,776 452,775 456,775 457,774 460,774 461,775 464,775 465,776 467,776 468,777 469,777 470,778 472,778 472,777 473,776 473,775 474,774 474,773 475,772 475,771 476,770 476,769 477,768 477,767 476,767 475,766 474,766 473,765 472,765 471,764 470,764 469,763 467,763 466,762 461,762 460,761" /><polygon fill="blue" points="384,761 383,762 379,762 378,763 376,763 375,764 374,764 373,765 372,765 371,766 370,766 362,774 362,775 361,776 361,777 360,778 360,779 359,780 359,781 358,782 358,785 357,786 357,802 358,803 358,806 359,807 359,809 360,810 360,811 361,812 361,813 364,816 364,817 367,820 368,820 370,822 371,822 372,823 373,823 374,824 375,824 376,825 378,825 379,826 384,826 385,827 395,827 396,826 401,826 402,825 404,825 405,824 407,824 408,823 410,823 411,822 412,822 413,821 414,821 414,820 413,819 413,818 412,817 412,815 411,814 411,812 410,811 410,809 409,809 408,810 407,810 406,811 404,811 403,812 401,812 400,813 397,813 396,814 386,814 385,813 382,813 381,812 380,812 379,811 378,811 376,809 376,808 374,806 374,805 373,804 373,801 372,800 373,799 416,799 416,786 415,785 415,781 414,780 414,778 413,777 413,776 412,775 412,774 410,772 410,771 406,767 405,767 403,765 402,765 401,764 400,764 399,763 397,763 396,762 392,762 391,761" /><polygon fill="blue" points="272,761 271,762 266,762 265,763 263,763 262,764 261,764 260,765 259,765 258,766 257,766 254,769 253,769 251,771 251,772 248,775 248,776 247,777 247,778 246,779 246,780 245,781 245,783 244,784 244,787 243,788 243,800 244,801 244,804 245,805 245,807 246,808 246,809 247,810 247,811 248,812 248,813 256,821 257,821 259,823 260,823 261,824 263,824 264,825 266,825 267,826 273,826 274,827 277,827 278,826 284,826 285,825 287,825 288,824 290,824 291,823 292,823 293,822 294,822 297,819 298,819 301,816 301,815 303,813 303,812 305,810 305,809 306,808 306,806 307,805 307,802 308,801 308,787 307,786 307,783 306,782 306,781 305,780 305,779 304,778 304,777 303,776 303,775 300,772 300,771 299,770 298,770 294,766 293,766 292,765 291,765 290,764 289,764 288,763 285,763 284,762 280,762 279,761" /><polygon fill="blue" points="214,761 213,762 209,762 208,763 206,763 205,764 203,764 202,765 201,765 199,767 198,767 191,774 191,775 190,776 190,777 189,778 189,779 188,780 188,781 187,782 187,785 186,786 186,803 187,804 187,806 188,807 188,809 189,810 189,811 190,812 190,813 192,815 192,816 196,820 197,820 199,822 200,822 201,823 202,823 203,824 204,824 205,825 207,825 208,826 213,826 214,827 222,827 223,826 228,826 229,825 231,825 232,824 234,824 235,823 236,823 238,821 239,821 239,820 238,819 238,818 237,817 237,815 236,814 236,813 235,812 235,810 234,809 231,812 229,812 228,813 225,813 224,814 216,814 215,813 213,813 212,812 211,812 205,806 205,805 204,804 204,802 203,801 203,788 204,787 204,785 205,784 205,783 206,782 206,781 209,778 210,778 212,776 213,776 214,775 218,775 219,774 223,774 224,775 227,775 228,776 230,776 231,777 232,777 233,778 234,778 235,777 235,776 236,775 236,774 237,773 237,772 238,771 238,770 239,769 239,768 240,767 239,767 238,766 237,766 236,765 235,765 234,764 233,764 232,763 229,763 228,762 224,762 223,761" /><polygon fill="blue" points="298,736 298,751 323,751 324,752 324,826 340,826 340,752 341,751 366,751 366,736" /><polygon fill="blue" points="84,736 84,751 108,751 109,752 109,826 126,826 126,752 127,751 152,751 152,736" /><polygon fill="blue" points="164,735 162,737 161,737 160,738 160,739 159,740 159,741 158,742 158,746 159,747 159,749 162,752 163,752 164,753 171,753 172,752 173,752 176,749 176,748 177,747 177,741 176,740 176,739 173,736 172,736 171,735" /><polygon fill="blue" points="698,733 698,826 714,826 714,733" /><polygon fill="blue" points="486,733 486,826 502,826 502,783 503,782 503,781 507,777 508,777 509,776 510,776 511,775 520,775 521,776 522,776 526,780 526,782 527,783 527,826 543,826 543,780 542,779 542,776 541,775 541,773 540,772 540,771 539,770 539,769 534,764 533,764 532,763 530,763 529,762 526,762 525,761 519,761 518,762 514,762 513,763 511,763 510,764 509,764 507,766 506,766 503,769 502,768 502,733" /><polygon fill="blue" points="610,591 609,592 605,592 604,593 602,593 601,594 600,594 599,595 598,595 597,596 596,596 595,597 594,597 592,599 591,599 582,608 582,609 580,611 580,612 579,613 579,614 578,615 578,616 577,617 577,618 576,619 576,621 575,622 575,625 574,626 574,643 575,644 575,647 576,648 576,650 577,651 577,652 578,653 578,654 579,655 579,656 580,657 580,658 582,660 582,661 591,670 592,670 594,672 595,672 597,674 598,674 599,675 601,675 602,676 604,676 605,677 607,677 608,678 615,678 616,679 619,679 620,678 627,678 628,677 630,677 631,676 633,676 634,675 635,675 636,674 637,674 638,673 639,673 640,672 641,672 643,670 644,670 653,661 653,660 655,658 655,657 656,656 656,655 657,654 657,653 658,652 658,651 659,650 659,648 660,647 660,644 661,643 661,626 660,625 660,622 659,621 659,619 658,618 658,617 657,616 657,615 656,614 656,613 655,612 655,611 653,609 653,608 644,599 643,599 641,597 640,597 639,596 638,596 637,595 636,595 635,594 633,594 632,593 630,593 629,592 626,592 625,591" /><polygon fill="blue" points="424,591 423,592 420,592 419,593 418,593 417,594 415,594 414,595 413,595 412,596 411,596 410,597 409,597 407,599 406,599 397,608 397,609 395,611 395,612 394,613 394,614 393,615 393,616 392,617 392,618 391,619 391,621 390,622 390,625 389,626 389,643 390,644 390,647 391,648 391,650 392,651 392,652 393,653 393,654 394,655 394,656 395,657 395,658 397,660 397,661 406,670 407,670 409,672 410,672 412,674 413,674 414,675 416,675 417,676 418,676 419,677 422,677 423,678 430,678 431,679 434,679 435,678 442,678 443,677 446,677 447,676 449,676 450,675 451,675 452,674 453,674 454,673 455,673 457,671 458,671 461,668 462,668 465,665 465,664 469,660 469,659 470,658 470,657 472,655 472,653 473,652 473,651 474,650 474,648 475,647 475,644 476,643 476,626 475,625 475,622 474,621 474,619 473,618 473,617 472,616 472,615 471,614 471,613 470,612 470,611 468,609 468,608 459,599 458,599 456,597 455,597 454,596 453,596 452,595 451,595 450,594 449,594 448,593 446,593 445,592 442,592 441,591" /><polygon fill="blue" points="215,239 214,240 211,240 210,241 209,241 208,242 207,242 205,244 205,245 203,247 203,249 202,250 202,257 203,258 203,260 204,261 204,262 207,265 208,265 209,266 210,266 211,267 215,267 216,268 220,268 221,267 286,267 287,268 290,268 291,269 292,269 293,270 293,272 294,273 294,275 295,276 295,279 296,280 296,282 297,283 297,286 298,287 298,289 299,290 299,293 300,294 300,296 301,297 301,300 302,301 302,303 303,304 303,306 304,307 304,310 305,311 305,313 306,314 306,317 307,318 307,321 308,322 308,324 309,325 309,328 310,329 310,331 311,332 311,334 312,335 312,338 313,339 313,341 314,342 314,345 315,346 315,348 316,349 316,352 317,353 317,355 318,356 318,359 319,360 319,362 320,363 320,366 321,367 321,369 322,370 322,373 323,374 323,376 324,377 324,380 325,381 325,383 326,384 326,387 327,388 327,390 328,391 328,394 329,395 329,397 330,398 330,401 331,402 331,404 332,405 332,407 333,408 333,411 334,412 334,415 335,416 335,418 336,419 336,421 337,422 337,425 338,426 338,428 339,429 339,432 340,433 340,435 341,436 341,439 342,440 342,442 343,443 343,446 344,447 344,449 345,450 345,453 346,454 346,456 347,457 347,460 348,461 348,463 349,464 349,466 350,467 350,470 351,471 351,473 352,474 352,477 353,478 353,480 354,481 354,483 355,484 355,487 356,488 356,491 357,492 357,494 358,495 358,497 359,498 359,501 360,502 360,504 361,505 361,508 362,509 362,511 363,512 363,515 364,516 364,518 365,519 365,522 366,523 366,525 367,526 367,529 368,530 368,532 369,533 369,535 370,536 370,539 371,540 371,542 372,543 372,544 373,545 373,546 374,547 374,548 375,549 375,550 376,551 376,552 378,554 378,555 388,565 389,565 391,567 392,567 394,569 395,569 396,570 397,570 398,571 399,571 400,572 402,572 403,573 406,573 407,574 410,574 411,575 673,575 674,574 676,574 677,573 678,573 679,572 680,572 682,570 682,569 684,567 684,565 685,564 685,556 684,555 684,554 683,553 683,552 679,548 678,548 677,547 675,547 674,546 414,546 413,545 411,545 410,544 409,544 408,543 407,543 400,536 400,535 399,534 399,533 398,532 398,531 397,530 397,527 396,526 396,524 395,523 395,520 394,519 394,517 393,516 393,513 394,512 670,512 671,511 676,511 677,510 679,510 680,509 682,509 683,508 685,508 686,507 687,507 688,506 689,506 690,505 691,505 692,504 693,504 695,502 696,502 698,500 699,500 709,490 709,489 711,487 711,486 713,484 713,483 714,482 714,481 715,480 715,479 716,478 716,477 717,476 717,474 718,473 718,471 719,470 719,467 720,466 720,463 721,462 721,459 722,458 722,454 723,453 723,450 724,449 724,446 725,445 725,441 726,440 726,437 727,436 727,433 728,432 728,428 729,427 729,424 730,423 730,420 731,419 731,416 732,415 732,411 733,410 733,407 734,406 734,403 735,402 735,398 736,397 736,394 737,393 737,390 738,389 738,385 739,384 739,381 740,380 740,377 741,376 741,373 742,372 742,368 743,367 743,364 744,363 744,360 745,359 745,355 746,354 746,351 747,350 747,347 748,346 748,342 749,341 749,338 750,337 750,334 751,333 751,329 752,328 752,320 751,319 751,316 750,315 750,313 749,312 749,311 746,308 746,307 745,306 744,306 741,303 740,303 739,302 738,302 737,301 735,301 734,300 661,300 660,301 658,301 657,302 656,302 652,306 652,307 651,308 651,309 650,310 650,318 651,319 651,321 654,324 654,325 655,325 657,327 659,327 660,328 715,328 716,327 722,327 723,328 722,329 722,332 721,333 721,336 720,337 720,341 719,342 719,345 718,346 718,350 717,351 717,354 716,355 716,358 715,359 715,363 714,364 714,367 713,368 713,372 712,373 712,376 711,377 711,380 710,381 710,385 709,386 709,389 708,390 708,393 707,394 707,398 706,399 706,402 705,403 705,407 704,408 704,411 703,412 703,415 702,416 702,420 701,421 701,424 700,425 700,429 699,430 699,433 698,434 698,437 697,438 697,442 696,443 696,446 695,447 695,451 694,452 694,455 693,456 693,459 692,460 692,463 691,464 691,465 690,466 690,467 689,468 689,469 687,471 687,472 680,479 679,479 677,481 676,481 675,482 673,482 672,483 384,483 383,482 383,480 382,479 382,476 381,475 381,472 380,471 380,469 379,468 379,466 378,465 378,462 377,461 377,459 376,458 376,455 375,454 375,452 374,451 374,448 373,447 373,445 372,444 372,441 371,440 371,438 370,437 370,434 369,433 369,431 368,430 368,427 367,426 367,424 366,423 366,420 365,419 365,417 364,416 364,413 363,412 363,410 362,409 362,406 361,405 361,403 360,402 360,399 359,398 359,396 358,395 358,392 357,391 357,389 356,388 356,385 355,384 355,382 354,381 354,378 353,377 353,375 352,374 352,371 351,370 351,368 350,367 350,364 349,363 349,361 348,360 348,357 347,356 347,354 346,353 346,350 345,349 345,347 344,346 344,343 343,342 343,340 342,339 342,336 341,335 341,333 340,332 340,330 339,329 339,328 340,327 341,327 342,328 426,328 427,327 428,327 429,326 430,326 434,322 434,321 435,320 435,319 436,318 436,310 435,309 435,308 434,307 434,306 430,302 429,302 428,301 425,301 424,300 332,300 331,299 331,298 330,297 330,294 329,293 329,291 328,290 328,287 327,286 327,284 326,283 326,280 325,279 325,277 324,276 324,273 323,272 323,270 322,269 322,266 321,265 321,263 320,262 320,261 319,260 319,259 318,258 318,257 317,256 317,255 316,254 316,253 308,245 307,245 306,244 305,244 304,243 303,243 302,242 301,242 300,241 298,241 297,240 293,240 292,239" /><polygon fill="blue" points="611,225 610,226 606,226 605,227 604,227 603,228 601,228 599,230 598,230 596,232 595,232 590,237 590,238 588,240 588,241 587,242 587,243 586,244 586,246 585,247 585,249 584,250 584,264 585,265 585,267 586,268 586,270 587,271 587,272 588,273 588,274 590,276 590,277 596,283 597,283 599,285 600,285 601,286 603,286 605,288 605,310 604,311 604,313 603,314 603,315 602,316 602,317 586,333 586,334 584,336 584,337 583,338 583,339 582,340 582,341 581,342 581,345 580,346 580,417 581,418 581,420 585,424 586,424 587,425 594,425 595,424 596,424 598,422 599,422 599,421 600,420 600,419 601,418 601,348 619,330 619,329 621,327 621,326 622,325 622,324 623,323 623,322 624,321 624,319 625,318 625,311 626,310 626,305 625,304 625,288 626,287 627,287 628,286 629,286 631,284 632,284 635,281 636,281 639,278 639,277 642,274 642,273 643,272 643,271 644,270 644,268 645,267 645,265 646,264 646,250 645,249 645,246 644,245 644,244 643,243 643,242 642,241 642,240 640,238 640,237 634,231 633,231 631,229 630,229 629,228 627,228 626,227 624,227 623,226 620,226 619,225" /><polygon fill="blue" points="464,189 463,190 459,190 458,191 456,191 455,192 453,192 451,194 450,194 449,195 448,195 442,201 442,202 440,204 440,205 439,206 439,207 438,208 438,209 437,210 437,212 436,213 436,218 435,219 435,224 436,225 436,230 437,231 437,233 438,234 438,235 439,236 439,237 441,239 441,240 449,248 450,248 451,249 452,249 453,250 454,250 455,251 456,251 457,252 457,286 458,287 458,291 459,292 459,294 460,295 460,296 461,297 461,298 462,299 462,300 465,303 465,304 470,309 471,309 476,314 477,314 481,318 482,318 487,323 488,323 493,328 494,328 497,331 497,415 498,416 498,419 499,420 499,421 502,424 503,424 504,425 512,425 513,424 514,424 516,422 516,421 518,419 518,292 517,291 517,290 513,286 512,286 511,285 504,285 503,286 502,286 499,289 499,290 498,291 498,294 497,295 497,301 496,302 495,302 490,297 489,297 486,294 485,294 479,288 479,286 478,285 478,283 477,282 477,252 478,251 479,251 481,249 482,249 483,248 484,248 486,246 487,246 492,241 492,240 494,238 494,237 495,236 495,235 496,234 496,232 497,231 497,228 498,227 498,215 497,214 497,211 496,210 496,209 495,208 495,207 494,206 494,205 493,204 493,203 485,195 484,195 482,193 481,193 480,192 478,192 477,191 475,191 474,190 470,190 469,189" /><polygon fill="blue" points="544,145 543,146 540,146 539,147 537,147 536,148 535,148 534,149 533,149 530,152 529,152 525,156 525,157 523,159 523,160 522,161 522,162 521,163 521,164 520,165 520,166 519,167 519,170 518,171 518,182 519,183 519,186 520,187 520,189 521,190 521,191 522,192 522,193 523,194 523,195 531,203 532,203 534,205 535,205 536,206 537,206 538,207 539,207 540,208 540,289 539,290 539,418 540,419 540,420 541,421 541,422 543,424 544,424 545,425 553,425 554,424 555,424 558,421 558,420 559,419 559,208 560,207 561,207 562,206 563,206 564,205 565,205 566,204 567,204 569,202 570,202 574,198 574,197 577,194 577,193 578,192 578,191 579,190 579,188 580,187 580,185 581,184 581,170 580,169 580,167 579,166 579,164 578,163 578,162 577,161 577,160 575,158 575,157 569,151 568,151 566,149 565,149 564,148 563,148 562,147 560,147 559,146 556,146 555,145" /></svg>